<svg xmlns="http://www.w3.org/2000/svg" width="280" height="269" viewBox="0 0 280 269" version="1.1"><path d="M 107.310 48.077 L 104.120 50.120 101.958 54.586 L 99.796 59.052 100.358 61.291 L 100.920 63.530 104.248 66.756 L 107.576 69.981 112.538 70.929 L 117.500 71.876 119.860 69.556 L 122.219 67.235 122.730 62.704 L 123.241 58.172 122.016 53.065 L 120.791 47.958 118.961 46.979 L 117.131 46 113.816 46.017 L 110.500 46.034 107.310 48.077 M 92.277 51.973 L 89.054 53.938 88.449 56.348 L 87.844 58.758 88.172 61.629 L 88.500 64.500 91.250 64.816 L 94 65.133 94.015 61.816 L 94.031 58.500 94.904 57.122 L 95.776 55.744 96.783 56.366 L 97.790 56.989 98.418 55.353 L 99.045 53.718 98.455 51.859 L 97.865 50 96.683 50.004 L 95.500 50.007 92.277 51.973" stroke="none" fill="#ffffff" fill-rule="evenodd"/><path d="M 64.024 61.781 L 64.048 62.500 64.926 66.283 L 65.804 70.066 64.438 75.783 L 63.071 81.500 63.036 82.719 L 63 83.937 64.429 83.389 L 65.858 82.841 79.526 84.558 L 93.194 86.275 98.523 85.082 L 103.852 83.890 107.917 80.945 L 111.983 78 112.491 78 L 113 78 113 79.364 L 113 80.728 109.250 83.308 L 105.500 85.888 102.685 86.944 L 99.870 88 92.893 88 L 85.917 88 73.042 86.430 L 60.168 84.861 56.834 85.180 L 53.500 85.500 59 88.733 L 64.500 91.967 72 93.675 L 79.500 95.382 89.500 95.441 L 99.500 95.500 107.739 92.671 L 115.979 89.843 119.489 85.741 L 123 81.640 123 79.975 L 123 78.310 121.148 76.634 L 119.295 74.957 112.505 73.537 L 105.715 72.116 102.607 69.230 L 99.500 66.343 94.500 67.189 L 89.500 68.036 81.500 67.295 L 73.500 66.554 71.764 66.763 L 70.027 66.972 68.454 64.570 L 66.880 62.168 65.440 61.615 L 64 61.063 64.024 61.781 M 130.423 213.369 L 127.346 214.500 119.975 222.250 L 112.603 230 109.847 230 L 107.091 230 100.440 232.414 L 93.788 234.829 90.985 237.515 L 88.181 240.201 87.681 242.114 L 87.180 244.026 88.911 244.952 L 90.642 245.879 91.884 242.445 L 93.126 239.011 97.313 236.574 L 101.500 234.137 104.250 233.460 L 107 232.783 107 234.233 L 107 235.683 103.152 236.836 L 99.304 237.989 96.652 240.447 L 94 242.905 94 245.428 L 94 247.950 96.750 246.909 L 99.500 245.867 101.512 243.982 L 103.525 242.098 108.348 239.964 L 113.171 237.831 120.501 238.137 L 127.830 238.442 130.552 235.721 L 133.273 233 134.195 233 L 135.118 233 134.500 232 L 133.882 231 129.441 231 L 125 231 125 229.558 L 125 228.115 130.500 223.367 L 136 218.619 136 215.309 L 136 212 134.750 212.119 L 133.500 212.239 130.423 213.369 M 160.474 222.117 L 159.837 225.017 158.024 225.987 L 156.210 226.958 155.157 229.979 L 154.104 233 148.956 233 L 143.808 233 138.426 234.565 L 133.044 236.129 131.022 238.969 L 129 241.809 129 242.333 L 129 242.857 130.608 244.465 L 132.217 246.074 133.858 242.807 L 135.500 239.540 138.898 237.270 L 142.296 235 145.231 235 L 148.167 235 147.759 236.224 L 147.350 237.449 144.110 238.111 L 140.869 238.774 138.435 241.061 L 136 243.349 136 244.674 L 136 246 137.486 246 L 138.971 246 145.736 242.398 L 152.500 238.796 160.500 239.280 L 168.500 239.763 174.496 242.288 L 180.492 244.814 181.246 244.348 L 182 243.882 182 241.964 L 182 240.046 179.427 238.360 L 176.854 236.674 171.177 235.785 L 165.500 234.896 164.742 234.140 L 163.984 233.384 166.979 227.854 L 169.975 222.324 167.737 221.246 L 165.500 220.167 163.306 219.692 L 161.111 219.216 160.474 222.117" stroke="none" fill="#f8bf03" fill-rule="evenodd"/><path d="M 40.500 52.129 L 34.500 52.839 30 54.781 L 25.500 56.722 21.361 60.868 L 17.221 65.014 15.361 68.757 L 13.500 72.500 13.500 79 L 13.500 85.500 15.366 90.336 L 17.231 95.173 18.866 94.661 L 20.500 94.150 35.294 88.075 L 50.088 82 56.385 82 L 62.683 82 63.842 78.134 L 65 74.268 65 69.877 L 65 65.487 64.038 62.131 L 63.075 58.775 61.288 57.421 L 59.500 56.066 56.015 54.375 L 52.531 52.684 49.515 52.051 L 46.500 51.419 40.500 52.129" stroke="none" fill="#f89403" fill-rule="evenodd"/><path d="M 64.024 61.781 L 64.048 62.500 64.926 66.283 L 65.804 70.066 64.438 75.783 L 63.071 81.500 63.036 82.719 L 63 83.937 64.429 83.389 L 65.858 82.841 79.526 84.558 L 93.194 86.275 98.523 85.082 L 103.852 83.890 107.917 80.945 L 111.983 78 112.491 78 L 113 78 113 79.364 L 113 80.728 109.250 83.308 L 105.500 85.888 102.685 86.944 L 99.870 88 92.893 88 L 85.917 88 73.042 86.430 L 60.168 84.861 56.834 85.180 L 53.500 85.500 59 88.733 L 64.500 91.967 72 93.675 L 79.500 95.382 89.500 95.441 L 99.500 95.500 107.739 92.671 L 115.979 89.843 119.489 85.741 L 123 81.640 123 79.975 L 123 78.310 121.148 76.634 L 119.295 74.957 112.505 73.537 L 105.715 72.116 102.607 69.230 L 99.500 66.343 94.500 67.189 L 89.500 68.036 81.500 67.295 L 73.500 66.554 71.764 66.763 L 70.027 66.972 68.454 64.570 L 66.880 62.168 65.440 61.615 L 64 61.063 64.024 61.781 M 130.423 213.369 L 127.346 214.500 119.975 222.250 L 112.603 230 109.847 230 L 107.091 230 100.440 232.414 L 93.788 234.829 90.985 237.515 L 88.181 240.201 87.681 242.114 L 87.180 244.026 88.911 244.952 L 90.642 245.879 91.884 242.445 L 93.126 239.011 97.313 236.574 L 101.500 234.137 104.250 233.460 L 107 232.783 107 234.233 L 107 235.683 103.152 236.836 L 99.304 237.989 96.652 240.447 L 94 242.905 94 245.428 L 94 247.950 96.750 246.909 L 99.500 245.867 101.512 243.982 L 103.525 242.098 108.348 239.964 L 113.171 237.831 120.501 238.137 L 127.830 238.442 130.552 235.721 L 133.273 233 134.195 233 L 135.118 233 134.500 232 L 133.882 231 129.441 231 L 125 231 125 229.558 L 125 228.115 130.500 223.367 L 136 218.619 136 215.309 L 136 212 134.750 212.119 L 133.500 212.239 130.423 213.369 M 160.474 222.117 L 159.837 225.017 158.024 225.987 L 156.210 226.958 155.157 229.979 L 154.104 233 148.956 233 L 143.808 233 138.426 234.565 L 133.044 236.129 131.022 238.969 L 129 241.809 129 242.333 L 129 242.857 130.608 244.465 L 132.217 246.074 133.858 242.807 L 135.500 239.540 138.898 237.270 L 142.296 235 145.231 235 L 148.167 235 147.759 236.224 L 147.350 237.449 144.110 238.111 L 140.869 238.774 138.435 241.061 L 136 243.349 136 244.674 L 136 246 137.486 246 L 138.971 246 145.736 242.398 L 152.500 238.796 160.500 239.280 L 168.500 239.763 174.496 242.288 L 180.492 244.814 181.246 244.348 L 182 243.882 182 241.964 L 182 240.046 179.427 238.360 L 176.854 236.674 171.177 235.785 L 165.500 234.896 164.742 234.140 L 163.984 233.384 166.979 227.854 L 169.975 222.324 167.737 221.246 L 165.500 220.167 163.306 219.692 L 161.111 219.216 160.474 222.117" stroke="none" fill="#f8bf03" fill-rule="evenodd"/><path d="M 130.610 37.723 L 129.888 38.446 121.694 38.519 L 113.500 38.593 109.485 39.772 L 105.469 40.951 100.485 44.169 L 95.500 47.388 97.500 47.801 L 99.500 48.215 100.598 49.104 L 101.696 49.993 103.471 48.032 L 105.245 46.072 109.655 44.388 L 114.066 42.703 117.913 43.856 L 121.761 45.009 122.895 47.754 L 124.029 50.500 124.956 56.211 L 125.883 61.923 124.976 65.084 L 124.069 68.245 122.539 70.581 L 121.008 72.917 123.566 75.475 L 126.124 78.033 125.465 80.267 L 124.806 82.500 122.446 86.163 L 120.086 89.827 114.795 92.663 L 109.504 95.500 108.160 99.500 L 106.817 103.500 107.360 110.366 L 107.903 117.232 110.202 123.769 L 112.500 130.305 116.400 133.153 L 120.300 136 121.400 135.975 L 122.500 135.950 126.652 132.030 L 130.804 128.111 128.797 124.055 L 126.791 120 125.773 120 L 124.755 120 125.777 118.750 L 126.799 117.500 125.956 112.226 L 125.113 106.951 125.973 101.726 L 126.833 96.500 128.540 91.500 L 130.248 86.500 132.522 81.357 L 134.795 76.214 136.291 75.357 L 137.786 74.500 138.888 70.500 L 139.989 66.500 139.985 58.500 L 139.980 50.500 137.490 45.151 L 135 39.801 135 38.401 L 135 37 133.167 37 L 131.333 37 130.610 37.723" stroke="none" fill="#f4b3d3" fill-rule="evenodd"/><path d="M 95.750 117.115 L 93 119.167 93 121.083 L 93 123 94.441 123 L 95.882 123 96.500 122 L 97.118 121 99.059 121 L 101 121 101 121.917 L 101 122.833 99.750 123.338 L 98.500 123.842 100.309 123.921 L 102.118 124 101.500 125 L 100.882 126 98.555 126 L 96.228 126 94.719 129.250 L 93.211 132.500 92.503 135.854 L 91.795 139.208 92.499 144.835 L 93.202 150.463 94.648 147.702 L 96.095 144.941 97.047 145.529 L 98 146.118 98 150.957 L 98 155.797 102.748 165.148 L 107.495 174.500 107.814 171.750 L 108.133 169 108.959 169 L 109.786 169 110.414 170.635 L 111.041 172.270 111.670 181.135 L 112.299 190 113.058 190 L 113.816 190 115.908 183.806 L 118 177.612 118 173.388 L 118 169.164 118.607 167.582 L 119.214 166 120.107 166 L 121 166 121 170.124 L 121 174.247 131.638 163.374 L 142.276 152.500 144.116 148.500 L 145.956 144.500 145.978 142.250 L 146 140 147 140 L 148 140 148 141.393 L 148 142.786 149.582 143.393 L 151.164 144 152.082 144 L 153 144 152.996 139.250 L 152.993 134.500 151.034 131.288 L 149.075 128.075 145.038 124.038 L 141 120 141 119.500 L 141 119 142.750 118.965 L 144.500 118.929 146.985 117.554 L 149.469 116.179 145.728 115.477 L 141.987 114.775 137.628 115.428 L 133.270 116.082 131.453 117.411 L 129.636 118.739 130.601 122.120 L 131.567 125.500 133.783 125.820 L 136 126.139 136 126.934 L 136 127.728 131.921 130.554 L 127.843 133.381 123.394 138.329 L 118.945 143.278 118.391 142.725 L 117.838 142.171 118.876 140.232 L 119.914 138.292 117.469 136.983 L 115.023 135.674 110.354 130.743 L 105.686 125.812 106.781 125.135 L 107.877 124.458 106.320 119.729 L 104.763 115 101.631 115.032 L 98.500 115.063 95.750 117.115" stroke="none" fill="#d9d9d9" fill-rule="evenodd"/><path d="M 141.091 14.448 L 139.699 21.396 137.599 24.948 L 135.500 28.500 134.901 22.234 L 134.301 15.968 133.651 15.317 L 133 14.667 132.434 15.232 L 131.869 15.798 132.919 19.700 L 133.970 23.602 133.581 28.531 L 133.193 33.460 131.142 34.822 L 129.091 36.183 120.296 36.488 L 111.500 36.793 107.355 38.355 L 103.210 39.918 99.855 42.244 L 96.500 44.569 91.157 49.784 L 85.815 54.998 86.157 60.314 L 86.500 65.630 82 65.376 L 77.500 65.123 74.293 64.524 L 71.087 63.926 69.293 61.682 L 67.500 59.439 63.886 56.705 L 60.273 53.971 53.932 51.394 L 47.591 48.818 40.256 49.909 L 32.921 51 28.711 53.133 L 24.500 55.266 20.768 58.203 L 17.035 61.140 13.894 67.722 L 10.753 74.304 11.226 80.918 L 11.699 87.532 13.794 92.266 L 15.888 97 17.957 97 L 20.027 97 21.764 96.072 L 23.500 95.143 28 93.195 L 32.500 91.246 37 89.529 L 41.500 87.811 45.749 86.366 L 49.999 84.921 52.230 87 L 54.462 89.079 59.481 91.509 L 64.500 93.939 70.500 95.538 L 76.500 97.138 86.500 97.543 L 96.500 97.948 100 97.089 L 103.500 96.231 105.398 95.452 L 107.296 94.673 106.536 97.586 L 105.775 100.500 105.302 106.750 L 104.829 113 101.563 113 L 98.296 113 94.998 115.250 L 91.700 117.500 90.874 119.774 L 90.047 122.047 92.101 124.101 L 94.155 126.155 92.683 129.327 L 91.211 132.500 90.514 135.806 L 89.817 139.112 90.515 145.128 L 91.213 151.145 92.708 151.718 L 94.202 152.291 95.086 150.896 L 95.969 149.500 95.985 152.014 L 96 154.528 97.891 159.702 L 99.782 164.876 103.063 170.609 L 106.343 176.343 108.096 178.096 L 109.848 179.848 110.087 185.674 L 110.326 191.500 110.770 192.750 L 111.214 194 112.214 194 L 113.214 194 112.658 192.551 L 112.102 191.102 113.551 191.658 L 115 192.214 115 191.131 L 115 190.048 116.842 187.020 L 118.684 183.991 120.968 185.972 L 123.252 187.953 128.126 191.081 L 133 194.208 133 194.926 L 133 195.644 131.426 200.262 L 129.853 204.881 128.385 204.318 L 126.918 203.755 127.150 204.627 L 127.381 205.500 126.578 208.900 L 125.775 212.300 122.638 215.799 L 119.500 219.297 115.661 222.899 L 111.822 226.500 109.818 227.252 L 107.815 228.004 104.657 228.527 L 101.500 229.051 95.278 232.075 L 89.055 235.098 87.312 238.049 L 85.569 241 84.882 241 L 84.196 241 83.098 244.149 L 82 247.298 82 252.233 L 82 257.167 83.250 256.751 L 84.500 256.334 84.603 254.375 L 84.707 252.416 85.889 250.208 L 87.070 248 88.292 248 L 89.514 248 89.172 252.307 L 88.829 256.613 90.402 257.919 L 91.975 259.224 93.913 254.703 L 95.851 250.182 97.675 249.594 L 99.500 249.005 102.506 246.180 L 105.513 243.354 110.434 241.677 L 115.356 240 118.928 240.014 L 122.500 240.027 124.681 240.612 L 126.862 241.197 126.476 242.349 L 126.090 243.500 125.622 248.460 L 125.155 253.421 126.128 255.238 L 127.100 257.056 128.050 256.469 L 129 255.882 129.015 253.191 L 129.031 250.500 129.765 249.439 L 130.500 248.377 132.506 248.403 L 134.512 248.429 134.190 251.964 L 133.868 255.500 135.402 257.500 L 136.936 259.500 137.037 258 L 137.138 256.500 137.525 253.500 L 137.912 250.500 140.168 248.668 L 142.425 246.835 146.836 244.250 L 151.247 241.665 159.078 241.823 L 166.909 241.980 170.704 243.392 L 174.500 244.804 176.500 245.552 L 178.500 246.300 180.448 246.674 L 182.395 247.048 184.172 248.656 L 185.949 250.264 186.542 252.132 L 187.135 254 188.199 254 L 189.263 254 188.759 250.239 L 188.254 246.477 185.028 241.697 L 181.802 236.916 179.476 235.392 L 177.151 233.869 172.461 233.487 L 167.771 233.104 167.417 232.751 L 167.064 232.397 170.119 226.596 L 173.174 220.794 176.021 216.306 L 178.867 211.819 180.869 215.743 L 182.871 219.667 188.097 225.321 L 193.324 230.976 199.412 234.876 L 205.500 238.777 210.500 240.352 L 215.500 241.928 225 243.360 L 234.500 244.793 238.500 244.807 L 242.500 244.820 245.825 243.808 L 249.150 242.795 248.580 233.916 L 248.009 225.036 250.755 224.335 L 253.500 223.634 255.250 223.755 L 257 223.876 257.097 222.188 L 257.194 220.500 257.030 217 L 256.867 213.500 256.142 210 L 255.416 206.500 251.958 206.485 L 248.500 206.470 247.580 201.485 L 246.661 196.500 246.358 196.111 L 246.056 195.723 239.223 199.313 L 232.390 202.904 227.945 203.897 L 223.500 204.890 220.500 205.379 L 217.500 205.868 215.251 202.366 L 213.002 198.865 213.910 197.168 L 214.818 195.472 213.562 192.486 L 212.306 189.499 210.580 188.067 L 208.854 186.634 206.810 182.567 L 204.767 178.500 203.250 176.774 L 201.733 175.047 201.116 175.427 L 200.500 175.806 200.209 171.673 L 199.918 167.539 196.510 160.519 L 193.103 153.500 189.461 148.025 L 185.819 142.550 184.455 139.914 L 183.092 137.277 177.296 131.202 L 171.500 125.127 166.150 121.564 L 160.799 118 157.728 118 L 154.657 118 153.079 116.642 L 151.500 115.283 148.101 114.142 L 144.702 113 140.601 113.044 L 136.500 113.088 132.538 114.499 L 128.577 115.910 128.167 115.500 L 127.757 115.091 127.583 108.795 L 127.408 102.500 129.254 96 L 131.100 89.500 132.050 87.250 L 133 85 134.169 82.500 L 135.338 80 136.508 80 L 137.679 80 138.776 77.592 L 139.873 75.184 141.028 70.897 L 142.182 66.611 142.120 59.055 L 142.057 51.500 138.834 43.117 L 135.611 34.734 138.055 32.758 L 140.500 30.782 144.973 26.783 L 149.447 22.783 151.690 19.742 L 153.934 16.702 153.324 15.716 L 152.715 14.730 151.525 16.953 L 150.335 19.177 145.417 24.186 L 140.500 29.196 138.750 30.133 L 137 31.070 137 29.594 L 137 28.118 137.922 27.548 L 138.844 26.978 140.989 20.534 L 143.133 14.089 142.809 10.795 L 142.484 7.500 141.091 14.448 M 115.608 38.676 L 107.715 40.030 102.840 42.683 L 97.966 45.337 96.860 46.668 L 95.755 48 97.819 48 L 99.882 48 100.516 49.026 L 101.150 50.052 104.120 47.552 L 107.091 45.053 111.008 43.998 L 114.925 42.943 117.463 43.580 L 120 44.217 120 45.167 L 120 46.118 120.854 45.590 L 121.708 45.063 122.857 47.586 L 124.007 50.109 124.686 54.804 L 125.366 59.500 125.250 62.803 L 125.135 66.106 123.105 69.546 L 121.076 72.985 123.600 75.509 L 126.124 78.033 125.465 80.267 L 124.806 82.500 122.398 86.235 L 119.991 89.971 114.922 92.540 L 109.853 95.108 108.356 98.690 L 106.860 102.272 106.680 107.637 L 106.500 113.002 107.250 113.001 L 108 113 108 116.419 L 108 119.838 109.474 122.669 L 110.947 125.500 112.478 129 L 114.008 132.500 117.085 134.250 L 120.162 136 121.331 135.975 L 122.500 135.950 126.652 132.030 L 130.804 128.111 128.797 124.055 L 126.791 120 125.773 120 L 124.755 120 125.736 118.750 L 126.717 117.500 126.352 114 L 125.988 110.500 125.938 105.609 L 125.888 100.717 127.133 95.859 L 128.378 91 128.976 91 L 129.574 91 129.710 89.204 L 129.845 87.407 132.320 81.811 L 134.795 76.214 136.291 75.357 L 137.786 74.500 138.888 70.500 L 139.989 66.500 139.985 58.500 L 139.980 50.500 137.490 45.151 L 135 39.801 135 38.401 L 135 37 133.486 37 L 131.973 37 130.061 38.194 L 128.148 39.389 125.824 38.355 L 123.500 37.321 115.608 38.676 M 109.500 45.963 L 107.500 46.800 104.109 50.343 L 100.717 53.887 100.262 58.693 L 99.807 63.500 103.570 67.250 L 107.333 71 109.417 71.077 L 111.500 71.153 113 71.480 L 114.500 71.807 116.038 72.429 L 117.577 73.051 120.365 70.141 L 123.153 67.231 123.352 61.866 L 123.552 56.500 122.424 52 L 121.297 47.500 118.898 46.265 L 116.500 45.029 114 45.078 L 111.500 45.127 109.500 45.963 M 91.856 51.516 L 89.212 52.953 88.106 56.126 L 87 59.298 87 61.221 L 87 63.143 88.433 64.575 L 89.865 66.008 92.160 65.658 L 94.455 65.308 94.557 63.404 L 94.658 61.500 94.829 59.143 L 95 56.786 96.538 57.376 L 98.077 57.967 98.889 55.771 L 99.702 53.575 99.234 51.787 L 98.767 50 96.633 50.040 L 94.500 50.080 91.856 51.516 M 45.800 51.531 L 45.500 51.828 40.144 52.111 L 34.787 52.394 30.043 54.664 L 25.299 56.935 24.027 58.467 L 22.755 60 21.378 60 L 20 60 20 61.067 L 20 62.133 17.500 65.411 L 15 68.689 15 69.279 L 15 69.870 13.885 72.685 L 12.770 75.500 12.773 79 L 12.775 82.500 13.278 84 L 13.780 85.500 15.490 90.296 L 17.200 95.092 19.350 94.796 L 21.500 94.500 22.821 93.250 L 24.143 92 25.571 92 L 27 92 27.638 92.085 L 28.276 92.171 28.898 91.166 L 29.519 90.160 34.759 88.095 L 40 86.029 40.015 86.765 L 40.031 87.500 40.765 86.449 L 41.500 85.397 46.033 83.699 L 50.567 82 56.283 82 L 62 82 62 83.107 L 62 84.214 63.750 83.542 L 65.500 82.871 80.226 84.626 L 94.951 86.381 100.450 84.647 L 105.949 82.914 108.869 80.457 L 111.789 78 112.394 78 L 113 78 113 79.385 L 113 80.770 110.250 82.635 L 107.500 84.500 104 86.216 L 100.500 87.932 92.500 87.960 L 84.500 87.988 78.839 87.061 L 73.177 86.134 63.339 85.437 L 53.500 84.740 56 87.157 L 58.500 89.573 59.500 89.732 L 60.500 89.891 66 91.865 L 71.500 93.839 79.322 94.919 L 87.145 96 92.060 96 L 96.976 96 106.384 92.986 L 115.792 89.973 119.396 85.984 L 123 81.994 123 80.152 L 123 78.310 121.250 76.781 L 119.500 75.253 116 74.211 L 112.500 73.168 108.925 72.572 L 105.350 71.975 102.637 69.143 L 99.924 66.311 94.712 67.186 L 89.500 68.062 81.750 67.427 L 74 66.792 74 65.773 L 74 64.755 72.406 66.078 L 70.811 67.401 68.928 64.951 L 67.044 62.500 67.022 61.583 L 67 60.667 66.410 61.256 L 65.821 61.846 62.975 59.127 L 60.130 56.407 57.315 54.955 L 54.500 53.503 53.765 52.502 L 53.031 51.500 53.015 52.145 L 53 52.789 49.550 52.011 L 46.100 51.233 45.800 51.531 M 139.500 114.639 L 137.500 115.089 133.334 116.595 L 129.169 118.101 130.042 121.147 L 130.916 124.194 132.031 125.537 L 133.146 126.881 134.573 126.334 L 136 125.786 136 126.757 L 136 127.728 131.921 130.554 L 127.843 133.381 123.394 138.329 L 118.945 143.278 118.391 142.725 L 117.838 142.171 118.936 140.120 L 120.034 138.069 117.263 136.636 L 114.493 135.203 110.173 130.456 L 105.852 125.709 106.930 125.043 L 108.007 124.377 106.410 119.689 L 104.812 115 101.853 115 L 98.894 115 95.688 117.250 L 92.482 119.500 92.804 121.704 L 93.127 123.907 96.551 122.274 L 99.975 120.642 100.708 121.375 L 101.442 122.109 99.971 123.039 L 98.500 123.969 100.309 123.985 L 102.118 124 101.500 125 L 100.882 126 98.555 126 L 96.228 126 94.429 129.750 L 92.630 133.500 92.240 137.500 L 91.850 141.500 92.522 145.989 L 93.194 150.477 94.645 147.709 L 96.095 144.941 97.047 145.529 L 98 146.118 98 150.344 L 98 154.569 100.096 160.535 L 102.193 166.500 102.885 167 L 103.577 167.500 105.772 171 L 107.966 174.500 107.983 171.750 L 108 169 109 169 L 110 169 110.077 169.750 L 110.153 170.500 110.547 172.500 L 110.941 174.500 111.410 179 L 111.880 183.500 111.940 186.833 L 112 190.167 113.080 189.807 L 114.160 189.447 115.986 183.973 L 117.812 178.500 118.353 172.500 L 118.894 166.500 118.947 166.250 L 119 166 120.076 166 L 121.153 166 120.980 169.750 L 120.806 173.500 120.903 174.321 L 121 175.143 122.500 173.643 L 124 172.143 124 171.668 L 124 171.193 133.124 161.929 L 142.248 152.664 144.102 148.582 L 145.956 144.500 145.978 142.250 L 146 140 147 140 L 148 140 148 141.433 L 148 142.865 150.125 143.540 L 152.250 144.214 153 142.999 L 153.751 141.785 153.266 138.142 L 152.780 134.500 151.436 131.890 L 150.093 129.279 145.547 124.601 L 141 119.923 141 119.403 L 141 118.882 141.750 119.346 L 142.501 119.810 146 117.947 L 149.500 116.084 149 115.965 L 148.500 115.847 147 115.474 L 145.500 115.100 143.500 114.645 L 141.500 114.189 139.500 114.639 M 160.971 124.123 L 159.500 126.245 158.408 127.393 L 157.316 128.541 156.091 130.829 L 154.867 133.117 155.494 135.975 L 156.122 138.832 155.450 142.416 L 154.777 146 151.402 146 L 148.027 146 146.518 149.611 L 145.009 153.222 134.255 164.370 L 123.500 175.517 121.260 178.463 L 119.021 181.408 122.260 184.487 L 125.500 187.566 126.124 187.302 L 126.748 187.037 129.163 189.275 L 131.577 191.513 133.289 191.183 L 135 190.853 135 191.938 L 135 193.022 140.750 195.761 L 146.500 198.500 147 199 L 147.500 199.500 150 199.845 L 152.500 200.191 152.835 201.102 L 153.171 202.012 154.065 201.460 L 154.959 200.908 156.979 201.989 L 159 203.070 159 201.743 L 159 200.416 154.543 196.043 L 150.087 191.669 150.602 190.834 L 151.118 190 150.034 190 L 148.950 190 147.892 187.250 L 146.833 184.500 146.549 182.500 L 146.264 180.500 145.716 179 L 145.168 177.500 145.008 175.750 L 144.848 174 144.762 170.250 L 144.676 166.500 145.256 162.118 L 145.835 157.736 147.394 156.178 L 148.952 154.619 149.557 155.224 L 150.162 155.829 148.892 158.164 L 147.623 160.500 147.295 162.500 L 146.967 164.500 146.831 169.264 L 146.696 174.029 147.348 174.681 L 148 175.333 148 177.301 L 148 179.268 149.181 183.211 L 150.363 187.154 155.681 193.115 L 161 199.076 161 198.547 L 161 198.018 165.750 200.897 L 170.500 203.776 172.750 204.456 L 175 205.135 175 206.008 L 175 206.882 174.227 207.360 L 173.453 207.838 168.477 205.428 L 163.500 203.018 163.359 203.009 L 163.219 203 162.815 206.461 L 162.411 209.923 162.863 209.470 L 163.316 209.017 164.556 210.046 L 165.796 211.076 167.915 211.484 L 170.035 211.892 171.589 213.446 L 173.143 215 173.911 215 L 174.679 215 175.891 212.341 L 177.102 209.681 175.923 208.952 L 174.744 208.224 175.461 207.063 L 176.178 205.903 177.589 207.074 L 179 208.245 179 206.967 L 179 205.690 180.750 207.172 L 182.500 208.654 188.500 210.238 L 194.500 211.821 202 213.488 L 209.500 215.155 211.714 216.040 L 213.929 216.925 214.525 215.960 L 215.121 214.995 217.139 216.074 L 219.156 217.154 220.714 216.556 L 222.272 215.958 220.386 213.873 L 218.500 211.787 214.724 209.860 L 210.948 207.933 203.724 206.386 L 196.500 204.838 195 204.266 L 193.500 203.693 191.750 203.909 L 190 204.126 190 202.563 L 190 201 191.250 201.006 L 192.500 201.011 196.500 202.188 L 200.500 203.364 201.399 203.132 L 202.298 202.901 203.899 203.589 L 205.500 204.278 207 204.532 L 208.500 204.787 212 205.562 L 215.500 206.337 214.259 204.827 L 213.017 203.316 213.475 202.858 L 213.933 202.401 207.468 199.450 L 201.003 196.500 201.001 195.809 L 201 195.118 201.794 194.627 L 202.589 194.136 206.837 196.039 L 211.086 197.941 211.917 195.720 L 212.748 193.500 211.624 192.765 L 210.500 192.031 211.359 192.015 L 212.218 192 207.359 187.983 L 202.500 183.966 194 179.810 L 185.500 175.654 185.067 175.310 L 184.633 174.967 185.817 173.783 L 187 172.600 187 173.587 L 187 174.574 189.028 174.727 L 191.056 174.880 196.698 177.936 L 202.341 180.992 202.732 180.601 L 203.123 180.210 200.012 176.666 L 196.900 173.122 192.270 170.056 L 187.640 166.989 182.320 165.312 L 177 163.635 177 162.209 L 177 160.783 179.740 161.471 L 182.480 162.159 183.225 163.329 L 183.969 164.500 183.985 163.737 L 184 162.973 187.622 164.487 L 191.244 166 191.690 166 L 192.136 166 189.909 162.873 L 187.682 159.745 184.341 157.774 L 181 155.802 181 154.901 L 181 154 182.350 154 L 183.700 154 187.888 157.034 L 192.076 160.068 191.479 161.034 L 190.882 162 191.990 162 L 193.098 162 195.027 166.250 L 196.956 170.500 196.956 168.500 L 196.956 166.500 195.063 162.331 L 193.171 158.163 193.752 157.581 L 194.333 157 193.262 157 L 192.190 157 187.349 148.750 L 182.508 140.500 182.837 139.500 L 183.167 138.500 182.470 139.197 L 181.774 139.893 177.893 134.983 L 174.012 130.074 168.665 126.037 L 163.318 122 162.880 122 L 162.442 122 160.971 124.123 M 134.049 199.786 L 133.054 203.388 133.292 203.625 L 133.529 203.862 140.926 204.181 L 148.323 204.500 148.678 203.450 L 149.033 202.400 142.038 199.292 L 135.043 196.184 134.049 199.786 M 240.187 201.606 L 235.874 204.040 234.937 203.461 L 234 202.882 234 203.822 L 234 204.763 229.449 205.909 L 224.897 207.055 224.018 206.511 L 223.138 205.967 222.510 206.984 L 221.882 208 219.786 208 L 217.690 208 219.532 210.035 L 221.374 212.071 226.437 211.600 L 231.500 211.129 231.500 210.937 L 231.500 210.745 233.500 210.436 L 235.500 210.128 240 208.528 L 244.500 206.929 245.863 206.453 L 247.225 205.976 246.208 204.738 L 245.192 203.500 244.846 201.336 L 244.500 199.172 240.187 201.606 M 149.143 205.932 L 146.786 208.986 145.739 208.338 L 144.691 207.691 145.380 208.806 L 146.069 209.921 142.964 214.209 L 139.858 218.496 133.679 223.498 L 127.500 228.500 131 228.828 L 134.500 229.156 136 230.478 L 137.500 231.800 144.550 231.280 L 151.601 230.760 155.185 225.630 L 158.769 220.500 159.879 216.500 L 160.989 212.500 160.979 209.500 L 160.969 206.500 160.129 205.174 L 159.288 203.848 155.394 203.363 L 151.500 202.878 149.143 205.932 M 248 209.153 L 243.500 210.086 241.500 210.408 L 239.500 210.730 236.762 211.836 L 234.024 212.942 230.762 213.278 L 227.500 213.615 225.925 214.558 L 224.349 215.500 223.687 217.300 L 223.024 219.100 215.803 218.527 L 208.582 217.953 203.610 216.477 L 198.637 215 196.759 215 L 194.882 215 195.500 216 L 196.118 217 195.460 218.065 L 194.801 219.130 192.901 217.410 L 191 215.690 191 214.503 L 191 213.317 187.134 212.158 L 183.268 211 182.108 211 L 180.949 211 182.680 214.250 L 184.411 217.500 184.421 218 L 184.430 218.500 191.798 225.667 L 199.166 232.835 199.333 232.847 L 199.500 232.859 202.325 233.934 L 205.151 235.008 206.647 236.504 L 208.143 238 210.012 238 L 211.882 238 212.473 238.956 L 213.064 239.913 214.545 239.344 L 216.025 238.776 217.386 239.905 L 218.747 241.035 220.268 240.450 L 221.790 239.866 225.825 240.953 L 229.859 242.039 238.180 242.211 L 246.500 242.383 246.149 234.442 L 245.799 226.500 245.421 226.105 L 245.043 225.710 237.772 226.952 L 230.500 228.195 223.500 227.643 L 216.500 227.090 214.300 227.030 L 212.099 226.969 211.518 226.028 L 210.936 225.087 209.332 225.703 L 207.727 226.319 208.221 224.909 L 208.715 223.500 210.608 223.790 L 212.500 224.080 223.800 224.790 L 235.100 225.500 235.800 224.891 L 236.500 224.282 243.813 223.121 L 251.127 221.960 251.861 222.414 L 252.595 222.868 253.892 222.067 L 255.188 221.266 254.477 214.633 L 253.767 208 253.134 208.110 L 252.500 208.219 248 209.153 M 130.416 213.326 L 127.332 214.500 119.916 222.144 L 112.500 229.788 108 230.472 L 103.500 231.155 101.750 231.292 L 100 231.429 100 232.321 L 100 233.214 98.606 232.679 L 97.212 232.144 92.356 236.322 L 87.500 240.500 87.635 242 L 87.769 243.500 87.885 244.583 L 88 245.667 89.500 245.667 L 91 245.667 91 244.333 L 91 243 92 243 L 93 243 92.882 242.250 L 92.763 241.500 92.882 240.365 L 93 239.230 95.428 237.639 L 97.857 236.048 99.178 235.774 L 100.500 235.500 101.021 234.811 L 101.543 234.122 104.271 233.627 L 107 233.132 107 234.408 L 107 235.683 103.152 236.836 L 99.304 237.989 96.652 240.447 L 94 242.905 94 245.428 L 94 247.950 96.750 246.909 L 99.500 245.867 101.512 243.982 L 103.525 242.098 108.348 239.964 L 113.171 237.831 120.501 238.137 L 127.830 238.442 130.552 235.721 L 133.273 233 134.195 233 L 135.118 233 134.500 232 L 133.882 231 129.441 231 L 125 231 125 229.569 L 125 228.137 130.827 223.069 L 136.654 218.001 136.213 215.001 L 135.773 212 134.637 212.076 L 133.500 212.152 130.416 213.326 M 160.926 219.467 L 160.851 219.500 160.401 222 L 159.950 224.500 158.027 226 L 156.103 227.500 155.076 230.250 L 154.050 233 148.929 233 L 143.808 233 138.426 234.565 L 133.044 236.129 131.022 238.969 L 129 241.809 129 242.333 L 129 242.857 130.608 244.465 L 132.217 246.074 133.858 242.858 L 135.500 239.642 138.111 237.730 L 140.721 235.818 144.476 235.312 L 148.231 234.806 147.782 236.153 L 147.333 237.500 144.917 237.500 L 142.500 237.500 139.500 240.245 L 136.500 242.991 135.781 242.995 L 135.063 243 135.638 244.500 L 136.214 246 137.593 246 L 138.971 246 145.569 242.500 L 152.166 239 158.608 239 L 165.050 239 170.709 240.989 L 176.368 242.978 176.934 243.739 L 177.500 244.500 179.387 244.495 L 181.275 244.489 182.062 242.362 L 182.849 240.234 179.425 238.389 L 176 236.545 175.994 236.023 L 175.988 235.500 170.940 235.396 L 165.893 235.293 164.696 234.079 L 163.500 232.865 165 231.679 L 166.500 230.493 166.829 228.996 L 167.158 227.500 168.829 225.645 L 170.500 223.790 170.500 223.414 L 170.500 223.039 168.072 221.338 L 165.644 219.637 163.322 219.536 L 161 219.434 160.926 219.467" stroke="none" fill="#000000" fill-rule="evenodd"/><path d="M 160.971 124.123 L 159.500 126.245 158.408 127.393 L 157.316 128.541 156.091 130.829 L 154.867 133.117 155.494 135.975 L 156.122 138.832 155.450 142.416 L 154.777 146 151.402 146 L 148.027 146 146.518 149.611 L 145.009 153.222 134.255 164.370 L 123.500 175.517 121.260 178.463 L 119.021 181.408 122.260 184.487 L 125.500 187.566 126.124 187.302 L 126.748 187.037 129.163 189.275 L 131.577 191.513 133.289 191.183 L 135 190.853 135 191.938 L 135 193.022 140.750 195.761 L 146.500 198.500 147 199 L 147.500 199.500 150 199.845 L 152.500 200.191 152.835 201.102 L 153.171 202.012 154.065 201.460 L 154.959 200.908 156.979 201.989 L 159 203.070 159 201.743 L 159 200.416 154.543 196.043 L 150.087 191.669 150.602 190.834 L 151.118 190 150.034 190 L 148.950 190 147.892 187.250 L 146.833 184.500 146.549 182.500 L 146.264 180.500 145.716 179 L 145.168 177.500 145.008 175.750 L 144.848 174 144.762 170.250 L 144.676 166.500 145.256 162.118 L 145.835 157.736 147.394 156.178 L 148.952 154.619 149.557 155.224 L 150.162 155.829 148.892 158.164 L 147.623 160.500 147.295 162.500 L 146.967 164.500 146.831 169.264 L 146.696 174.029 147.348 174.681 L 148 175.333 148 177.301 L 148 179.268 149.181 183.211 L 150.363 187.154 155.681 193.115 L 161 199.076 161 198.547 L 161 198.018 165.750 200.897 L 170.500 203.776 172.750 204.456 L 175 205.135 175 206.008 L 175 206.882 174.227 207.360 L 173.453 207.838 168.477 205.428 L 163.500 203.018 163.359 203.009 L 163.219 203 162.815 206.461 L 162.411 209.923 162.863 209.470 L 163.316 209.017 164.556 210.046 L 165.796 211.076 167.915 211.484 L 170.035 211.892 171.589 213.446 L 173.143 215 173.911 215 L 174.679 215 175.891 212.341 L 177.102 209.681 175.923 208.952 L 174.744 208.224 175.461 207.063 L 176.178 205.903 177.589 207.074 L 179 208.245 179 206.967 L 179 205.690 180.750 207.172 L 182.500 208.654 188.500 210.238 L 194.500 211.821 202 213.488 L 209.500 215.155 211.714 216.040 L 213.929 216.925 214.525 215.960 L 215.121 214.995 217.139 216.074 L 219.156 217.154 220.714 216.556 L 222.272 215.958 220.386 213.873 L 218.500 211.787 214.724 209.860 L 210.948 207.933 203.724 206.386 L 196.500 204.838 195 204.266 L 193.500 203.693 191.750 203.909 L 190 204.126 190 202.563 L 190 201 191.250 201.006 L 192.500 201.011 196.500 202.188 L 200.500 203.364 201.399 203.132 L 202.298 202.901 203.899 203.589 L 205.500 204.278 207 204.532 L 208.500 204.787 212 205.562 L 215.500 206.337 214.259 204.827 L 213.017 203.316 213.475 202.858 L 213.933 202.401 207.468 199.450 L 201.003 196.500 201.001 195.809 L 201 195.118 201.794 194.627 L 202.589 194.136 206.837 196.039 L 211.086 197.941 211.917 195.720 L 212.748 193.500 211.624 192.765 L 210.500 192.031 211.359 192.015 L 212.218 192 207.359 187.983 L 202.500 183.966 194 179.810 L 185.500 175.654 185.067 175.310 L 184.633 174.967 185.817 173.783 L 187 172.600 187 173.859 L 187 175.118 187.836 174.601 L 188.672 174.085 195.086 177.253 L 201.500 180.422 202.467 180.866 L 203.434 181.311 201.782 178.790 L 200.130 176.270 200.815 175.385 L 201.500 174.500 200.625 175.175 L 199.751 175.849 194.877 171.997 L 190.004 168.145 184.465 166.073 L 178.925 164 177.962 164 L 177 164 177 162.392 L 177 160.783 179.740 161.471 L 182.480 162.159 183.225 163.329 L 183.969 164.500 183.985 163.737 L 184 162.973 187.622 164.487 L 191.244 166 191.690 166 L 192.136 166 189.909 162.873 L 187.682 159.745 184.341 157.774 L 181 155.802 181 154.901 L 181 154 182.350 154 L 183.700 154 187.888 157.034 L 192.076 160.068 191.479 161.034 L 190.882 162 191.990 162 L 193.098 162 195.027 166.250 L 196.956 170.500 196.956 168.500 L 196.956 166.500 195.063 162.331 L 193.171 158.163 193.752 157.581 L 194.333 157 193.262 157 L 192.190 157 187.349 148.750 L 182.508 140.500 182.837 139.500 L 183.167 138.500 182.470 139.197 L 181.774 139.893 177.893 134.983 L 174.012 130.074 168.665 126.037 L 163.318 122 162.880 122 L 162.442 122 160.971 124.123 M 134.049 199.786 L 133.054 203.388 133.292 203.625 L 133.529 203.862 140.926 204.181 L 148.323 204.500 148.678 203.450 L 149.033 202.400 142.038 199.292 L 135.043 196.184 134.049 199.786 M 240.187 201.606 L 235.874 204.040 234.937 203.461 L 234 202.882 234 203.822 L 234 204.763 229.449 205.909 L 224.897 207.055 224.018 206.511 L 223.138 205.967 222.510 206.984 L 221.882 208 219.786 208 L 217.690 208 219.532 210.035 L 221.374 212.071 226.437 211.600 L 231.500 211.129 231.500 210.937 L 231.500 210.745 233.500 210.436 L 235.500 210.128 240 208.528 L 244.500 206.929 245.863 206.453 L 247.225 205.976 246.208 204.738 L 245.192 203.500 244.846 201.336 L 244.500 199.172 240.187 201.606 M 248 209.153 L 243.500 210.086 241.500 210.408 L 239.500 210.730 236.762 211.836 L 234.024 212.942 230.762 213.278 L 227.500 213.615 225.925 214.558 L 224.349 215.500 223.687 217.300 L 223.024 219.100 215.803 218.527 L 208.582 217.953 203.610 216.477 L 198.637 215 196.759 215 L 194.882 215 195.500 216 L 196.118 217 195.460 218.065 L 194.801 219.130 192.901 217.410 L 191 215.690 191 214.503 L 191 213.317 187.134 212.158 L 183.268 211 182.108 211 L 180.949 211 182.680 214.250 L 184.411 217.500 184.421 218 L 184.430 218.500 191.798 225.667 L 199.166 232.835 199.333 232.847 L 199.500 232.859 202.325 233.934 L 205.151 235.008 206.647 236.504 L 208.143 238 210.012 238 L 211.882 238 212.473 238.956 L 213.064 239.913 214.545 239.344 L 216.025 238.776 217.386 239.905 L 218.747 241.035 220.268 240.450 L 221.790 239.866 225.825 240.953 L 229.859 242.039 238.180 242.211 L 246.500 242.383 246.149 234.442 L 245.799 226.500 245.421 226.105 L 245.043 225.710 237.772 226.952 L 230.500 228.195 223.500 227.643 L 216.500 227.090 214.300 227.030 L 212.099 226.969 211.518 226.028 L 210.936 225.087 209.332 225.703 L 207.727 226.319 208.221 224.909 L 208.715 223.500 210.608 223.790 L 212.500 224.080 223.800 224.790 L 235.100 225.500 235.800 224.891 L 236.500 224.282 243.813 223.121 L 251.127 221.960 251.861 222.414 L 252.595 222.868 253.892 222.067 L 255.188 221.266 254.477 214.633 L 253.767 208 253.134 208.110 L 252.500 208.219 248 209.153" stroke="none" fill="#1a1a19" fill-rule="evenodd"/></svg>