<svg version="1.1" id="Layer_1" xmlns="http://www.w3.org/2000/svg" xmlns:xlink="http://www.w3.org/1999/xlink" x="0px" y="0px"
	 width="100%" viewBox="0 0 420 420" enable-background="new 0 0 420 420" xml:space="preserve">
<path fill="#746C61" opacity="1.000000" stroke="none" 
	d="
M277.000000,421.000000 
	C184.666672,421.000000 92.833359,421.000000 1.000025,421.000000 
	C1.000016,281.000031 1.000016,141.000061 1.000008,1.000062 
	C140.999954,1.000041 280.999908,1.000041 420.999908,1.000021 
	C420.999939,140.999939 420.999939,280.999878 420.999969,420.999908 
	C373.166656,421.000000 325.333344,421.000000 277.000000,421.000000 
M160.074524,129.834183 
	C159.052399,131.204391 157.393326,132.468979 157.144836,133.967468 
	C156.672806,136.813950 157.008118,139.794312 157.008118,142.007660 
	C154.722977,142.007660 152.357391,142.415237 150.202911,141.914520 
	C146.755188,141.113205 142.595413,140.616837 140.232727,138.398270 
	C131.448395,130.149811 122.176468,124.404198 109.427040,126.947899 
	C100.717461,128.685593 93.298035,132.271027 87.803574,139.460770 
	C80.511208,149.003159 80.629417,159.112457 84.814476,169.848251 
	C86.537018,174.267014 88.904289,174.826920 92.866356,173.065598 
	C99.473885,170.128235 106.182938,167.419266 112.849030,164.613617 
	C117.532692,162.642349 121.632401,162.305893 126.208679,165.914871 
	C135.136490,172.955566 146.190735,174.261292 157.069733,174.842392 
	C163.860519,175.205139 170.730499,174.085312 177.165894,173.657333 
	C176.615875,178.800278 176.042603,184.160522 175.445358,189.745041 
	C169.693054,189.939331 163.948486,190.820297 161.841919,197.165543 
	C161.303238,198.788055 163.223343,201.226852 164.358704,204.191193 
	C161.420105,210.046738 159.546326,217.328064 162.073242,225.009430 
	C162.655777,226.780197 164.453018,228.151398 166.306427,230.479034 
	C168.570923,235.460861 171.059799,241.685928 174.173096,247.581268 
	C177.489029,253.860336 182.865479,259.263855 181.132370,267.361603 
	C180.896454,268.463959 181.964417,269.845398 182.962982,272.538818 
	C185.703003,267.963745 187.652817,264.708069 189.531067,261.571899 
	C193.457138,264.277313 197.250946,266.898132 201.051773,269.508728 
	C204.218842,271.684082 203.378464,279.506622 199.880539,281.385712 
	C199.055252,281.829071 198.301285,282.888977 198.035095,283.814880 
	C195.201996,293.669678 188.160629,299.876923 179.643738,304.541382 
	C176.861343,306.065186 173.247681,305.980438 170.187653,307.103851 
	C157.184555,311.877747 150.099503,321.956207 154.401550,333.822601 
	C155.276245,332.286438 155.436356,330.505707 156.158752,328.993591 
	C156.914871,327.410828 158.211243,326.086182 159.271469,324.648712 
	C160.487900,329.046661 158.264633,333.182953 162.872696,336.557404 
	C164.225296,333.388123 164.621384,329.695374 166.626740,328.275482 
	C172.845016,323.872681 178.520676,318.259430 186.588318,317.036530 
	C195.909561,315.623566 197.716827,317.589020 196.253632,326.798676 
	C195.903534,329.002289 197.132401,331.456757 197.635071,333.795868 
	C198.137405,333.745148 198.639740,333.694427 199.142059,333.643707 
	C199.853638,330.869049 200.565216,328.094421 201.266861,325.358521 
	C208.243027,326.040741 202.367920,334.080505 207.796936,335.524750 
	C208.037094,335.071136 208.594650,334.502228 208.603653,333.924744 
	C208.677933,329.164764 209.972351,325.597809 214.796524,323.129974 
	C218.965240,320.997406 222.654770,318.992249 227.639450,318.815826 
	C235.020493,318.554596 241.547485,320.726166 248.352493,322.923309 
	C253.001328,324.424286 256.794037,326.107117 258.704773,330.798309 
	C258.750977,330.911713 259.319031,330.812592 259.641846,330.812592 
	C260.943085,319.153748 252.730118,310.893219 237.934799,309.691528 
	C241.810150,302.716980 245.528275,296.025421 249.370209,289.110992 
	C250.385040,290.555939 251.221863,291.594269 251.895142,292.729553 
	C259.539825,305.620758 270.283142,314.611237 284.919189,318.392609 
	C289.980347,319.700226 295.229462,320.530182 300.442535,320.931396 
	C305.958618,321.355896 311.543610,321.174774 317.074890,320.852570 
	C318.104340,320.792603 319.721710,318.891235 319.855377,317.703278 
	C320.205933,314.588074 320.258118,311.337402 319.758301,308.249329 
	C318.676910,301.567902 318.564514,301.418762 325.041107,301.028412 
	C327.968262,300.851990 329.465820,300.066162 328.423157,296.777649 
	C327.984375,295.393646 328.063049,293.830475 328.000275,292.344788 
	C327.644653,283.924866 327.456665,283.696289 319.269684,282.512695 
	C318.678345,279.441467 318.072510,276.294830 317.385162,272.725006 
	C312.843872,274.988434 308.784760,277.560150 304.362946,279.068817 
	C299.454010,280.743713 294.246429,281.913788 289.097198,282.271179 
	C287.688232,282.368958 286.013245,278.768311 284.485199,276.845123 
	C284.295807,276.606781 284.260071,276.246307 284.165558,275.938080 
	C285.977875,271.698273 285.092987,269.395813 282.030457,265.372253 
	C278.066803,260.164856 274.238953,254.737823 271.235657,248.947342 
	C268.033600,242.773605 266.309235,235.838013 263.154663,229.634216 
	C254.183289,211.991074 242.147293,197.696747 221.985306,191.904480 
	C214.146210,189.652405 206.900253,189.452606 198.514877,193.442368 
	C199.044464,186.496368 198.843002,180.323715 200.132355,174.480011 
	C201.710663,167.326691 205.204208,161.069427 209.307953,154.639938 
	C215.516876,144.912201 215.247910,132.847260 210.635635,121.830307 
	C208.219193,116.058327 205.137177,110.863708 212.997742,106.243195 
	C213.113983,105.751060 213.230225,105.258926 213.346466,104.766785 
	C212.873611,105.148987 212.400772,105.531197 211.324493,106.028297 
	C210.734680,106.197289 210.144852,106.366280 209.232010,106.197395 
	C209.232010,106.197395 208.874924,105.895714 208.988373,105.172585 
	C211.785767,99.058083 215.043777,93.049606 213.734955,85.953697 
	C211.745865,92.222206 209.773880,98.436859 207.801895,104.651505 
	C207.386078,104.524292 206.970261,104.397079 206.554443,104.269867 
	C205.962051,100.220474 205.369659,96.171074 204.777267,92.121681 
	C204.026154,97.448051 203.995667,102.547531 204.036743,107.646431 
	C204.064667,111.113625 201.145920,113.875305 197.824661,113.383339 
	C182.399948,111.098518 170.376495,117.310585 160.363312,128.441742 
	C159.980240,128.867584 160.254944,129.885132 160.184799,130.544006 
	C160.184799,130.544006 160.221085,130.648468 160.074524,129.834183 
M224.034363,94.876083 
	C224.080734,94.104630 224.127090,93.333183 224.192245,92.249016 
	C220.986496,96.028076 218.149948,99.371902 215.313416,102.715721 
	C215.689148,103.064400 216.064880,103.413086 216.440613,103.761765 
	C218.910507,101.016960 221.380402,98.272163 224.034363,94.876083 
z"/>
<path fill="#030302" opacity="1.000000" stroke="none" 
	d="
M212.474777,106.551422 
	C205.137177,110.863708 208.219193,116.058327 210.635635,121.830307 
	C215.247910,132.847260 215.516876,144.912201 209.307953,154.639938 
	C205.204208,161.069427 201.710663,167.326691 200.132355,174.480011 
	C198.843002,180.323715 199.044464,186.496368 198.514877,193.442368 
	C206.900253,189.452606 214.146210,189.652405 221.985306,191.904480 
	C242.147293,197.696747 254.183289,211.991074 263.154663,229.634216 
	C266.309235,235.838013 268.033600,242.773605 271.235657,248.947342 
	C274.238953,254.737823 278.066803,260.164856 282.030457,265.372253 
	C285.092987,269.395813 285.977875,271.698273 284.159363,275.940247 
	C284.260071,276.246307 284.295807,276.606781 284.485199,276.845123 
	C286.013245,278.768311 287.688232,282.368958 289.097198,282.271179 
	C294.246429,281.913788 299.454010,280.743713 304.362946,279.068817 
	C308.784760,277.560150 312.843872,274.988434 317.385162,272.725006 
	C318.072510,276.294830 318.678345,279.441467 319.269684,282.512695 
	C327.456665,283.696289 327.644653,283.924866 328.000275,292.344788 
	C328.063049,293.830475 327.984375,295.393646 328.423157,296.777649 
	C329.465820,300.066162 327.968262,300.851990 325.041107,301.028412 
	C318.564514,301.418762 318.676910,301.567902 319.758301,308.249329 
	C320.258118,311.337402 320.205933,314.588074 319.855377,317.703278 
	C319.721710,318.891235 318.104340,320.792603 317.074890,320.852570 
	C311.543610,321.174774 305.958618,321.355896 300.442535,320.931396 
	C295.229462,320.530182 289.980347,319.700226 284.919189,318.392609 
	C270.283142,314.611237 259.539825,305.620758 251.895142,292.729553 
	C251.221863,291.594269 250.385040,290.555939 249.370209,289.110992 
	C245.528275,296.025421 241.810150,302.716980 237.934799,309.691528 
	C252.730118,310.893219 260.943085,319.153748 259.641846,330.812592 
	C259.319031,330.812592 258.750977,330.911713 258.704773,330.798309 
	C256.794037,326.107117 253.001328,324.424286 248.352493,322.923309 
	C241.547485,320.726166 235.020493,318.554596 227.639450,318.815826 
	C222.654770,318.992249 218.965240,320.997406 214.796524,323.129974 
	C209.972351,325.597809 208.677933,329.164764 208.603653,333.924744 
	C208.594650,334.502228 208.037094,335.071136 207.796936,335.524750 
	C202.367920,334.080505 208.243027,326.040741 201.266861,325.358521 
	C200.565216,328.094421 199.853638,330.869049 199.142059,333.643707 
	C198.639740,333.694427 198.137405,333.745148 197.635071,333.795868 
	C197.132401,331.456757 195.903534,329.002289 196.253632,326.798676 
	C197.716827,317.589020 195.909561,315.623566 186.588318,317.036530 
	C178.520676,318.259430 172.845016,323.872681 166.626740,328.275482 
	C164.621384,329.695374 164.225296,333.388123 162.872696,336.557404 
	C158.264633,333.182953 160.487900,329.046661 159.271469,324.648712 
	C158.211243,326.086182 156.914871,327.410828 156.158752,328.993591 
	C155.436356,330.505707 155.276245,332.286438 154.401550,333.822601 
	C150.099503,321.956207 157.184555,311.877747 170.187653,307.103851 
	C173.247681,305.980438 176.861343,306.065186 179.643738,304.541382 
	C188.160629,299.876923 195.201996,293.669678 198.035095,283.814880 
	C198.301285,282.888977 199.055252,281.829071 199.880539,281.385712 
	C203.378464,279.506622 204.218842,271.684082 201.051773,269.508728 
	C197.250946,266.898132 193.457138,264.277313 189.531067,261.571899 
	C187.652817,264.708069 185.703003,267.963745 182.962982,272.538818 
	C181.964417,269.845398 180.896454,268.463959 181.132370,267.361603 
	C182.865479,259.263855 177.489029,253.860336 174.173096,247.581268 
	C171.059799,241.685928 168.570923,235.460861 166.306427,230.479034 
	C164.453018,228.151398 162.655777,226.780197 162.073242,225.009430 
	C159.546326,217.328064 161.420105,210.046738 164.358704,204.191193 
	C163.223343,201.226852 161.303238,198.788055 161.841919,197.165543 
	C163.948486,190.820297 169.693054,189.939331 175.445358,189.745041 
	C176.042603,184.160522 176.615875,178.800278 177.165894,173.657333 
	C170.730499,174.085312 163.860519,175.205139 157.069733,174.842392 
	C146.190735,174.261292 135.136490,172.955566 126.208679,165.914871 
	C121.632401,162.305893 117.532692,162.642349 112.849030,164.613617 
	C106.182938,167.419266 99.473885,170.128235 92.866356,173.065598 
	C88.904289,174.826920 86.537018,174.267014 84.814476,169.848251 
	C80.629417,159.112457 80.511208,149.003159 87.803574,139.460770 
	C93.298035,132.271027 100.717461,128.685593 109.427040,126.947899 
	C122.176468,124.404198 131.448395,130.149811 140.232727,138.398270 
	C142.595413,140.616837 146.755188,141.113205 150.202911,141.914520 
	C152.357391,142.415237 154.722977,142.007660 157.008118,142.007660 
	C157.008118,139.794312 156.672806,136.813950 157.144836,133.967468 
	C157.393326,132.468979 159.052399,131.204391 160.115234,130.482147 
	C159.698166,132.523697 159.064285,133.886383 158.813400,135.316284 
	C157.786530,141.168808 159.545517,142.789825 165.123062,141.445496 
	C165.279297,138.241745 163.796860,134.515610 168.947388,133.449799 
	C169.556412,133.323792 169.690964,129.876495 169.536057,128.011078 
	C169.507324,127.665085 166.848877,127.000992 165.731476,127.400146 
	C163.762405,128.103531 162.045578,129.513077 160.223129,130.626953 
	C160.254944,129.885132 159.980240,128.867584 160.363312,128.441742 
	C170.376495,117.310585 182.399948,111.098518 197.824661,113.383339 
	C201.145920,113.875305 204.064667,111.113625 204.036743,107.646431 
	C203.995667,102.547531 204.026154,97.448051 204.777267,92.121681 
	C205.369659,96.171074 205.962051,100.220474 206.554443,104.269867 
	C206.970261,104.397079 207.386078,104.524292 207.801895,104.651505 
	C209.773880,98.436859 211.745865,92.222206 213.734955,85.953697 
	C215.043777,93.049606 211.785767,99.058083 208.692917,105.677719 
	C208.369324,106.604630 208.341171,107.026405 208.313019,107.448189 
	C208.727020,107.143883 209.141037,106.839584 209.555038,106.535278 
	C210.144852,106.366280 210.734680,106.197289 211.757599,106.134918 
	C212.190704,106.241547 212.474777,106.551422 212.474777,106.551422 
M134.745255,137.162766 
	C127.654221,128.819138 118.310036,127.687386 108.360008,129.343277 
	C101.843140,130.427841 95.674393,133.232773 91.461502,138.281967 
	C82.720917,148.757660 81.024643,157.947174 88.890060,172.242355 
	C92.547554,170.683578 96.216293,169.018936 99.959671,167.543732 
	C110.811287,163.267258 121.195755,157.061035 133.780365,159.938904 
	C139.765991,160.622421 145.737213,161.641907 151.741119,161.899567 
	C158.397049,162.185226 165.209335,162.514206 171.710220,161.402054 
	C175.893936,160.686310 179.639130,157.407364 184.428436,154.819229 
	C183.730072,156.483398 183.583862,158.028839 182.785736,158.524506 
	C179.504959,160.561859 176.118759,163.609344 172.601654,163.854935 
	C163.672928,164.478363 154.643250,163.995834 145.672607,163.566788 
	C138.968506,163.246140 132.293411,162.318832 125.605400,161.661667 
	C125.542503,162.208771 125.479599,162.755875 125.416702,163.302994 
	C139.980194,172.253326 155.929260,175.050171 172.574326,171.480911 
	C179.901917,169.909637 188.091293,168.383789 192.411697,160.434219 
	C194.678940,156.262466 194.153961,153.749176 189.711029,152.050613 
	C188.053497,151.416916 186.312958,150.834625 184.564117,150.636841 
	C179.500000,150.064117 174.909180,148.749756 171.712265,144.338394 
	C171.370758,143.867157 170.111343,143.962936 169.277557,143.962036 
	C162.099152,143.954269 154.913681,144.174026 147.745865,143.907410 
	C145.013962,143.805786 142.171326,142.947159 139.664169,141.806854 
	C137.894775,141.002151 136.605469,139.141876 134.745255,137.162766 
M261.236877,242.432053 
	C261.597443,242.408829 261.957977,242.385605 262.318542,242.362366 
	C261.886322,242.234009 261.454102,242.105652 261.038727,241.244156 
	C258.216034,238.014801 255.393326,234.785446 251.840439,230.720718 
	C260.883789,233.024200 264.474915,239.317474 268.053589,245.766937 
	C260.315948,227.674667 251.634583,210.290543 233.974136,198.898376 
	C232.063339,201.372849 230.113998,203.430130 228.740784,205.818649 
	C227.576126,207.844391 226.657669,210.202881 226.383652,212.503830 
	C225.990891,215.801773 226.283524,219.181320 226.283524,221.307236 
	C222.677948,223.087891 219.812744,223.720291 218.164108,225.487595 
	C215.163696,228.703888 213.196960,232.875214 210.242874,236.145828 
	C203.600449,243.500061 196.617844,250.546997 189.837036,257.652618 
	C196.969223,265.677216 222.145813,279.843781 230.513702,278.034302 
	C223.687515,271.765533 218.161865,265.334351 216.397598,256.154358 
	C214.110428,244.253448 215.336182,234.407379 220.528809,232.784515 
	C220.559601,232.938202 220.652710,233.112061 220.610611,233.242172 
	C220.407974,233.868607 220.125336,234.471130 219.949051,235.103851 
	C216.255493,248.360092 217.066299,260.732849 227.506714,270.943726 
	C233.978378,277.273102 241.611298,281.462006 250.556122,283.625519 
	C261.101227,286.176056 271.427185,289.620850 281.927887,292.373901 
	C285.288849,293.255066 288.903473,293.168884 293.752777,293.662933 
	C284.473816,282.425140 271.608978,283.860107 260.943085,280.088257 
	C261.114594,279.379150 261.286102,278.670044 261.457611,277.960938 
	C269.349457,279.601044 277.241333,281.241150 285.639221,282.986420 
	C281.555298,274.596527 271.634338,275.545990 266.368866,269.893585 
	C266.550995,269.477570 266.733154,269.061554 266.915314,268.645569 
	C271.958801,270.621490 277.002289,272.597443 282.045776,274.573364 
	C282.489532,274.235596 282.933289,273.897827 283.377014,273.560028 
	C282.406372,271.366730 282.035278,268.349365 280.357147,267.128540 
	C274.367615,262.771210 267.955780,258.989349 261.655151,255.067841 
	C259.861298,253.951370 257.902283,253.100266 256.019012,252.127457 
	C256.329132,251.472214 256.639252,250.816956 256.949371,250.161713 
	C262.388184,252.592941 267.826965,255.024185 273.265747,257.455414 
	C273.553772,257.102051 273.841797,256.748657 274.129822,256.395294 
	C270.070435,252.927872 266.324188,248.967087 261.861786,246.134689 
	C257.578430,243.415970 252.552673,241.866882 247.853165,239.803802 
	C248.118835,239.178497 248.384506,238.553207 248.650177,237.927917 
	C252.763184,239.290344 256.876190,240.652771 261.236877,242.432053 
M223.624252,220.816696 
	C226.506027,209.531952 218.514999,203.354568 211.930084,196.837387 
	C214.767670,195.723541 217.265137,194.743195 219.762604,193.762848 
	C219.681259,193.219391 219.599915,192.675934 219.518585,192.132477 
	C214.762848,192.429520 209.928970,192.296906 205.273209,193.143646 
	C200.555771,194.001602 199.717972,196.142441 202.078293,200.466827 
	C202.940353,202.046234 205.089767,202.922989 206.624985,204.099686 
	C201.089920,209.202881 195.295181,214.545486 188.367157,220.932953 
	C189.536118,218.150635 190.115036,216.772690 190.443848,215.990051 
	C185.801437,211.658813 181.325043,207.482483 176.957001,203.407227 
	C180.193344,199.283356 176.860764,196.100937 175.659409,193.039520 
	C175.298492,192.119797 170.814026,191.681107 169.211136,192.655212 
	C166.868896,194.078659 162.216782,195.175598 164.645187,200.026886 
	C167.116913,199.273224 169.375793,198.584442 171.634659,197.895676 
	C171.760223,198.294632 171.885803,198.693588 172.011368,199.092545 
	C171.525864,199.603470 171.040375,200.114395 170.505188,200.677597 
	C171.415573,200.948227 172.132339,201.161285 172.849106,201.374359 
	C166.949280,202.496002 164.207458,206.088730 164.022385,211.703568 
	C163.860977,216.600189 163.988739,221.506348 163.988739,227.227493 
	C165.567963,224.888397 166.514206,223.486847 167.460464,222.085297 
	C167.872803,222.049423 168.285126,222.013550 168.697449,221.977676 
	C167.979584,233.099335 172.615540,242.139496 178.744476,250.887039 
	C178.992020,249.054993 179.197372,247.535141 179.402725,246.015289 
	C179.991318,245.972473 180.579910,245.929657 181.168503,245.886856 
	C181.992249,252.897491 182.816010,259.908142 183.639771,266.918793 
	C184.189270,267.014282 184.738785,267.109741 185.288284,267.205231 
	C187.092911,259.089996 188.897537,250.974777 190.702164,242.859543 
	C191.133255,242.948380 191.564362,243.037231 191.995453,243.126068 
	C191.995453,245.624542 191.995453,248.123016 191.995453,251.745804 
	C201.361908,239.664703 215.646393,232.891541 217.542374,217.617859 
	C219.403198,218.814194 221.086746,219.896576 223.624252,220.816696 
M196.231842,157.788864 
	C194.384186,163.018921 191.668518,167.572952 186.060364,169.426865 
	C179.603668,171.561325 178.379913,176.713318 177.986176,182.529984 
	C177.419067,190.907990 180.235428,198.579803 183.125916,206.147263 
	C185.505508,212.377197 192.709854,213.658844 197.390625,209.116196 
	C198.870789,207.679718 200.419205,206.313553 201.788757,205.051254 
	C200.701248,201.078354 197.754318,198.434509 197.379028,193.580444 
	C196.757324,185.538788 196.280334,177.851059 199.029144,170.225159 
	C200.931274,164.948196 202.892685,159.674072 205.214630,154.574921 
	C206.343979,152.094833 209.323227,150.205338 209.804260,147.726227 
	C211.687424,138.020599 212.593414,128.243317 207.066406,119.131050 
	C206.186447,117.680275 205.961853,115.831993 205.396851,114.049400 
	C202.681168,114.593758 199.849792,115.916031 197.255615,115.551270 
	C185.740662,113.932152 175.882889,117.104027 166.990707,124.393028 
	C169.244400,125.177444 171.111084,125.827164 173.185379,126.549141 
	C173.900681,125.764427 174.551666,124.703362 175.492203,124.077339 
	C180.063843,121.034439 184.831711,118.466461 190.474899,121.204063 
	C195.111267,123.453239 195.060547,128.186890 195.967712,132.337830 
	C197.408203,138.929031 196.316833,145.025223 192.757950,149.092728 
	C194.329285,152.345261 195.489746,154.747299 196.231842,157.788864 
M295.585510,305.007629 
	C292.136993,304.664612 288.611115,304.666016 285.254944,303.911957 
	C276.313873,301.903137 267.929413,298.897552 261.555786,291.571167 
	C259.671631,289.405304 256.055969,288.745758 252.253174,286.926910 
	C259.270630,308.337036 292.158569,323.538971 317.953705,318.244690 
	C317.501221,313.330170 317.042725,308.350708 316.567291,303.186920 
	C309.621765,303.818420 303.081879,304.413055 295.585510,305.007629 
M205.622559,309.191925 
	C202.504349,308.584778 199.386139,307.977600 195.026413,307.128693 
	C197.660156,304.299957 199.603683,301.056030 202.465988,299.405487 
	C206.918396,296.838043 207.733459,293.589630 206.442352,288.424896 
	C203.097183,289.928650 199.410477,290.765839 196.835617,292.927399 
	C192.506012,296.562042 188.905991,301.060791 184.942154,305.140717 
	C184.211639,305.892639 183.292252,306.675842 182.322052,306.942505 
	C178.294037,308.049744 174.007858,308.480103 170.210480,310.088959 
	C166.557343,311.636749 163.261490,314.164185 160.081314,316.615021 
	C159.025223,317.428925 158.814453,319.339722 158.143860,320.922150 
	C159.479660,321.605255 160.566299,322.160950 161.752640,322.767639 
	C163.058243,314.866058 169.152664,312.523193 175.362457,310.395599 
	C176.080261,310.149689 177.064850,310.682373 177.925766,310.854034 
	C177.337311,311.579895 176.887772,312.560364 176.129120,312.974274 
	C174.869949,313.661224 173.304443,313.792999 172.057907,314.495605 
	C168.134857,316.706757 163.707047,318.687592 165.540146,325.450684 
	C168.342178,323.549286 170.668900,321.438080 173.396484,320.238129 
	C178.052841,318.189636 182.879593,315.631317 187.782959,315.263672 
	C194.226486,314.780548 200.714828,315.872223 205.622559,309.191925 
M276.590179,294.011932 
	C273.394012,293.275208 270.197845,292.538452 267.001678,291.801727 
	C266.797943,292.414734 266.594177,293.027771 266.390442,293.640808 
	C271.115967,295.781830 275.677582,298.464355 280.600189,299.954193 
	C291.782166,303.338409 303.132996,302.613861 314.441254,300.114655 
	C318.101349,299.305756 323.660583,300.033905 325.069611,297.896118 
	C326.799622,295.271362 325.099304,290.379272 324.850189,286.469360 
	C324.831390,286.174286 324.559601,285.895386 324.115906,285.071106 
	C315.467316,287.080383 306.662567,289.097534 297.880432,291.208771 
	C296.971771,291.427216 295.636353,292.056854 295.453796,292.747894 
	C294.416107,296.675934 291.350037,296.192017 288.623779,295.936615 
	C284.864441,295.584473 281.143616,294.821594 276.590179,294.011932 
M209.309021,296.794006 
	C205.963287,299.581085 202.617554,302.368195 198.873093,305.487427 
	C205.974075,306.359100 211.858856,309.874115 218.420364,307.996429 
	C219.796738,307.602570 221.635529,307.747620 222.519882,306.884644 
	C228.662811,300.890015 232.257538,293.637085 231.845184,284.893677 
	C231.782242,283.558990 230.205429,281.508636 228.965454,281.186035 
	C226.637863,280.580505 224.072540,278.157867 221.562317,281.730194 
	C217.978745,286.829987 213.816940,291.523468 209.309021,296.794006 
M171.896957,132.680939 
	C169.731659,139.639236 174.450439,147.102768 181.580017,147.996307 
	C190.001419,149.051758 193.176056,147.567337 193.875305,141.507172 
	C194.286194,137.946075 194.183868,134.150192 193.406403,130.661819 
	C191.395416,121.638748 184.025513,119.478577 176.927155,125.730408 
	C174.991394,127.435318 173.668320,129.835892 171.896957,132.680939 
M226.045898,306.885345 
	C226.087784,310.091431 223.847809,309.819733 221.611725,310.059998 
	C216.612289,310.597076 211.426025,310.792786 206.749191,312.393585 
	C204.084488,313.305603 202.117310,316.595093 200.255035,319.122742 
	C199.994553,319.476288 202.134735,321.598541 203.489990,323.315491 
	C206.090973,315.000793 211.518188,311.432220 220.696976,312.759064 
	C215.003464,315.908600 207.876816,315.480316 206.860291,323.575134 
	C209.771774,322.534607 212.428543,322.175110 214.355774,320.796051 
	C223.586166,314.191223 233.192184,314.652832 243.162125,318.579712 
	C246.055420,319.719299 249.011444,320.699677 253.575439,322.341980 
	C252.653488,319.399231 252.635742,317.034821 251.533966,316.303436 
	C249.198776,314.753296 246.351624,313.877563 243.615265,313.055176 
	C240.724655,312.186401 237.718765,311.701202 234.721130,311.039185 
	C237.139252,306.475128 239.000473,302.962189 241.121872,298.958191 
	C237.896301,297.950012 235.128891,297.085022 233.365402,296.533844 
	C230.727081,300.156219 228.548874,303.146881 226.045898,306.885345 
M313.184998,284.813812 
	C314.465942,284.229828 315.746887,283.645844 316.978516,283.084320 
	C316.420074,280.609100 315.972839,278.626770 315.676941,277.315125 
	C306.837646,280.277252 298.327972,283.128876 289.818298,285.980530 
	C289.741119,286.430054 289.663971,286.879578 289.586823,287.329102 
	C292.235931,287.777618 294.987366,288.908813 297.512604,288.530396 
	C302.539124,287.777161 307.441284,286.193787 313.184998,284.813812 
M243.933762,284.468506 
	C240.832916,283.098663 237.732071,281.728821 234.359146,280.238800 
	C232.428177,289.963440 242.415497,287.140900 245.013443,292.136780 
	C247.202759,288.922882 249.413925,286.426086 243.933762,284.468506 
M214.006439,281.042328 
	C215.875397,281.042328 217.744354,281.042328 219.613297,281.042328 
	C219.709625,280.543457 219.805939,280.044556 219.902267,279.545685 
	C215.480591,277.518341 211.058929,275.490997 206.146042,273.238464 
	C205.451233,275.833282 204.838913,278.120056 204.057999,281.036438 
	C207.534103,281.036438 210.338974,281.036438 214.006439,281.042328 
z"/>
<path fill="#030302" opacity="1.000000" stroke="none" 
	d="
M223.942322,95.201721 
	C221.380402,98.272163 218.910507,101.016960 216.440613,103.761765 
	C216.064880,103.413086 215.689148,103.064400 215.313416,102.715721 
	C218.149948,99.371902 220.986496,96.028076 224.192245,92.249016 
	C224.127090,93.333183 224.080734,94.104630 223.942322,95.201721 
z"/>
<path fill="#030302" opacity="1.000000" stroke="none" 
	d="
M212.059326,106.077477 
	C212.400772,105.531197 212.873611,105.148987 213.346466,104.766785 
	C213.230225,105.258926 213.113983,105.751060 212.736267,106.397308 
	C212.474777,106.551422 212.190704,106.241547 212.059326,106.077477 
z"/>
<path fill="#282828" opacity="1.000000" stroke="none" 
	d="
M260.989197,242.015198 
	C256.876190,240.652771 252.763184,239.290344 248.650177,237.927917 
	C248.384506,238.553207 248.118835,239.178497 247.853165,239.803802 
	C252.552673,241.866882 257.578430,243.415970 261.861786,246.134689 
	C266.324188,248.967087 270.070435,252.927872 274.129822,256.395294 
	C273.841797,256.748657 273.553772,257.102051 273.265747,257.455414 
	C267.826965,255.024185 262.388184,252.592941 256.949371,250.161713 
	C256.639252,250.816956 256.329132,251.472214 256.019012,252.127457 
	C257.902283,253.100266 259.861298,253.951370 261.655151,255.067841 
	C267.955780,258.989349 274.367615,262.771210 280.357147,267.128540 
	C282.035278,268.349365 282.406372,271.366730 283.377014,273.560028 
	C282.933289,273.897827 282.489532,274.235596 282.045776,274.573364 
	C277.002289,272.597443 271.958801,270.621490 266.915314,268.645569 
	C266.733154,269.061554 266.550995,269.477570 266.368866,269.893585 
	C271.634338,275.545990 281.555298,274.596527 285.639221,282.986420 
	C277.241333,281.241150 269.349457,279.601044 261.457611,277.960938 
	C261.286102,278.670044 261.114594,279.379150 260.943085,280.088257 
	C271.608978,283.860107 284.473816,282.425140 293.752777,293.662933 
	C288.903473,293.168884 285.288849,293.255066 281.927887,292.373901 
	C271.427185,289.620850 261.101227,286.176056 250.556122,283.625519 
	C241.611298,281.462006 233.978378,277.273102 227.506714,270.943726 
	C217.066299,260.732849 216.255493,248.360092 219.949051,235.103851 
	C220.125336,234.471130 220.407974,233.868607 220.610611,233.242172 
	C220.652710,233.112061 220.559601,232.938202 220.528809,232.784515 
	C215.336182,234.407379 214.110428,244.253448 216.397598,256.154358 
	C218.161865,265.334351 223.687515,271.765533 230.513702,278.034302 
	C222.145813,279.843781 196.969223,265.677216 189.837036,257.652618 
	C196.617844,250.546997 203.600449,243.500061 210.242874,236.145828 
	C213.196960,232.875214 215.163696,228.703888 218.164108,225.487595 
	C219.812744,223.720291 222.677948,223.087891 226.283524,221.307236 
	C226.283524,219.181320 225.990891,215.801773 226.383652,212.503830 
	C226.657669,210.202881 227.576126,207.844391 228.740784,205.818649 
	C230.113998,203.430130 232.063339,201.372849 233.974136,198.898376 
	C251.634583,210.290543 260.315948,227.674667 268.053589,245.766937 
	C264.474915,239.317474 260.883789,233.024200 251.840439,230.720718 
	C255.393326,234.785446 258.216034,238.014801 261.021179,241.620102 
	C261.003632,241.996048 260.989197,242.015182 260.989197,242.015198 
z"/>
<path fill="#D9D9D9" opacity="1.000000" stroke="none" 
	d="
M223.197266,220.897827 
	C221.086746,219.896576 219.403198,218.814194 217.542374,217.617859 
	C215.646393,232.891541 201.361908,239.664703 191.995453,251.745804 
	C191.995453,248.123016 191.995453,245.624542 191.995453,243.126068 
	C191.564362,243.037231 191.133255,242.948380 190.702164,242.859543 
	C188.897537,250.974777 187.092911,259.089996 185.288284,267.205231 
	C184.738785,267.109741 184.189270,267.014282 183.639771,266.918793 
	C182.816010,259.908142 181.992249,252.897491 181.168503,245.886856 
	C180.579910,245.929657 179.991318,245.972473 179.402725,246.015289 
	C179.197372,247.535141 178.992020,249.054993 178.744476,250.887039 
	C172.615540,242.139496 167.979584,233.099335 168.697449,221.977676 
	C168.285126,222.013550 167.872803,222.049423 167.460464,222.085297 
	C166.514206,223.486847 165.567963,224.888397 163.988739,227.227493 
	C163.988739,221.506348 163.860977,216.600189 164.022385,211.703568 
	C164.207458,206.088730 166.949280,202.496002 172.849106,201.374359 
	C172.132339,201.161285 171.415573,200.948227 170.505188,200.677597 
	C171.040375,200.114395 171.525864,199.603470 172.011368,199.092545 
	C171.885803,198.693588 171.760223,198.294632 171.634659,197.895676 
	C169.375793,198.584442 167.116913,199.273224 164.645187,200.026886 
	C162.216782,195.175598 166.868896,194.078659 169.211136,192.655212 
	C170.814026,191.681107 175.298492,192.119797 175.659409,193.039520 
	C176.860764,196.100937 180.193344,199.283356 176.957001,203.407227 
	C181.325043,207.482483 185.801437,211.658813 190.443848,215.990051 
	C190.115036,216.772690 189.536118,218.150635 188.367157,220.932953 
	C195.295181,214.545486 201.089920,209.202881 206.624985,204.099686 
	C205.089767,202.922989 202.940353,202.046234 202.078293,200.466827 
	C199.717972,196.142441 200.555771,194.001602 205.273209,193.143646 
	C209.928970,192.296906 214.762848,192.429520 219.518585,192.132477 
	C219.599915,192.675934 219.681259,193.219391 219.762604,193.762848 
	C217.265137,194.743195 214.767670,195.723541 211.930084,196.837387 
	C218.514999,203.354568 226.506027,209.531952 223.197266,220.897827 
z"/>
<path fill="#F89403" opacity="1.000000" stroke="none" 
	d="
M133.638855,159.178696 
	C121.195755,157.061035 110.811287,163.267258 99.959671,167.543732 
	C96.216293,169.018936 92.547554,170.683578 88.890060,172.242355 
	C81.024643,157.947174 82.720917,148.757660 91.461502,138.281967 
	C95.674393,133.232773 101.843140,130.427841 108.360008,129.343277 
	C118.310036,127.687386 127.654221,128.819138 134.899826,137.877121 
	C136.961349,145.617447 136.456299,152.477570 133.638855,159.178696 
z"/>
<path fill="#F3B3D3" opacity="1.000000" stroke="none" 
	d="
M196.441025,157.469116 
	C195.489746,154.747299 194.329285,152.345261 192.757950,149.092728 
	C196.316833,145.025223 197.408203,138.929031 195.967712,132.337830 
	C195.060547,128.186890 195.111267,123.453239 190.474899,121.204063 
	C184.831711,118.466461 180.063843,121.034439 175.492203,124.077339 
	C174.551666,124.703362 173.900681,125.764427 173.185379,126.549141 
	C171.111084,125.827164 169.244400,125.177444 166.990707,124.393028 
	C175.882889,117.104027 185.740662,113.932152 197.255615,115.551270 
	C199.849792,115.916031 202.681168,114.593758 205.396851,114.049400 
	C205.961853,115.831993 206.186447,117.680275 207.066406,119.131050 
	C212.593414,128.243317 211.687424,138.020599 209.804260,147.726227 
	C209.323227,150.205338 206.343979,152.094833 205.214630,154.574921 
	C202.892685,159.674072 200.931274,164.948196 199.029144,170.225159 
	C196.280334,177.851059 196.757324,185.538788 197.379028,193.580444 
	C197.754318,198.434509 200.701248,201.078354 201.788757,205.051254 
	C200.419205,206.313553 198.870789,207.679718 197.390625,209.116196 
	C192.709854,213.658844 185.505508,212.377197 183.125916,206.147263 
	C180.235428,198.579803 177.419067,190.907990 177.986176,182.529984 
	C178.379913,176.713318 179.603668,171.561325 186.060364,169.426865 
	C191.668518,167.572952 194.384186,163.018921 196.441025,157.469116 
z"/>
<path fill="#F8BF03" opacity="1.000000" stroke="none" 
	d="
M133.709610,159.558807 
	C136.456299,152.477570 136.961349,145.617447 135.078125,138.172165 
	C136.605469,139.141876 137.894775,141.002151 139.664169,141.806854 
	C142.171326,142.947159 145.013962,143.805786 147.745865,143.907410 
	C154.913681,144.174026 162.099152,143.954269 169.277557,143.962036 
	C170.111343,143.962936 171.370758,143.867157 171.712265,144.338394 
	C174.909180,148.749756 179.500000,150.064117 184.564117,150.636841 
	C186.312958,150.834625 188.053497,151.416916 189.711029,152.050613 
	C194.153961,153.749176 194.678940,156.262466 192.411697,160.434219 
	C188.091293,168.383789 179.901917,169.909637 172.574326,171.480911 
	C155.929260,175.050171 139.980194,172.253326 125.416702,163.302994 
	C125.479599,162.755875 125.542503,162.208771 125.605400,161.661667 
	C132.293411,162.318832 138.968506,163.246140 145.672607,163.566788 
	C154.643250,163.995834 163.672928,164.478363 172.601654,163.854935 
	C176.118759,163.609344 179.504959,160.561859 182.785736,158.524506 
	C183.583862,158.028839 183.730072,156.483398 184.428436,154.819229 
	C179.639130,157.407364 175.893936,160.686310 171.710220,161.402054 
	C165.209335,162.514206 158.397049,162.185226 151.741119,161.899567 
	C145.737213,161.641907 139.765991,160.622421 133.709610,159.558807 
z"/>
<path fill="#282828" opacity="1.000000" stroke="none" 
	d="
M296.063782,305.007629 
	C303.081879,304.413055 309.621765,303.818420 316.567291,303.186920 
	C317.042725,308.350708 317.501221,313.330170 317.953705,318.244690 
	C292.158569,323.538971 259.270630,308.337036 252.253174,286.926910 
	C256.055969,288.745758 259.671631,289.405304 261.555786,291.571167 
	C267.929413,298.897552 276.313873,301.903137 285.254944,303.911957 
	C288.611115,304.666016 292.136993,304.664612 296.063782,305.007629 
z"/>
<path fill="#F8BF03" opacity="1.000000" stroke="none" 
	d="
M205.471527,309.538513 
	C200.714828,315.872223 194.226486,314.780548 187.782959,315.263672 
	C182.879593,315.631317 178.052841,318.189636 173.396484,320.238129 
	C170.668900,321.438080 168.342178,323.549286 165.540146,325.450684 
	C163.707047,318.687592 168.134857,316.706757 172.057907,314.495605 
	C173.304443,313.792999 174.869949,313.661224 176.129120,312.974274 
	C176.887772,312.560364 177.337311,311.579895 177.925751,310.854065 
	C177.064850,310.682373 176.080261,310.149689 175.362457,310.395599 
	C169.152664,312.523193 163.058243,314.866058 161.752640,322.767639 
	C160.566299,322.160950 159.479660,321.605255 158.143860,320.922150 
	C158.814453,319.339722 159.025223,317.428925 160.081314,316.615021 
	C163.261490,314.164185 166.557343,311.636749 170.210480,310.088959 
	C174.007858,308.480103 178.294037,308.049744 182.322052,306.942505 
	C183.292252,306.675842 184.211639,305.892639 184.942154,305.140717 
	C188.905991,301.060791 192.506012,296.562042 196.835617,292.927399 
	C199.410477,290.765839 203.097183,289.928650 206.442352,288.424896 
	C207.733459,293.589630 206.918396,296.838043 202.465988,299.405487 
	C199.603683,301.056030 197.660156,304.299957 195.026413,307.128693 
	C199.386139,307.977600 202.504349,308.584778 205.471527,309.538513 
z"/>
<path fill="#282828" opacity="1.000000" stroke="none" 
	d="
M276.998230,294.123291 
	C281.143616,294.821594 284.864441,295.584473 288.623779,295.936615 
	C291.350037,296.192017 294.416107,296.675934 295.453796,292.747894 
	C295.636353,292.056854 296.971771,291.427216 297.880432,291.208771 
	C306.662567,289.097534 315.467316,287.080383 324.115906,285.071106 
	C324.559601,285.895386 324.831390,286.174286 324.850189,286.469360 
	C325.099304,290.379272 326.799622,295.271362 325.069611,297.896118 
	C323.660583,300.033905 318.101349,299.305756 314.441254,300.114655 
	C303.132996,302.613861 291.782166,303.338409 280.600189,299.954193 
	C275.677582,298.464355 271.115967,295.781830 266.390442,293.640808 
	C266.594177,293.027771 266.797943,292.414734 267.001678,291.801727 
	C270.197845,292.538452 273.394012,293.275208 276.998230,294.123291 
z"/>
<path fill="#746C61" opacity="1.000000" stroke="none" 
	d="
M209.605560,296.592224 
	C213.816940,291.523468 217.978745,286.829987 221.562317,281.730194 
	C224.072540,278.157867 226.637863,280.580505 228.965454,281.186035 
	C230.205429,281.508636 231.782242,283.558990 231.845184,284.893677 
	C232.257538,293.637085 228.662811,300.890015 222.519882,306.884644 
	C221.635529,307.747620 219.796738,307.602570 218.420364,307.996429 
	C211.858856,309.874115 205.974075,306.359100 198.873093,305.487427 
	C202.617554,302.368195 205.963287,299.581085 209.605560,296.592224 
z"/>
<path fill="#F9FAF9" opacity="1.000000" stroke="none" 
	d="
M171.980499,132.299072 
	C173.668320,129.835892 174.991394,127.435318 176.927155,125.730408 
	C184.025513,119.478577 191.395416,121.638748 193.406403,130.661819 
	C194.183868,134.150192 194.286194,137.946075 193.875305,141.507172 
	C193.176056,147.567337 190.001419,149.051758 181.580017,147.996307 
	C174.450439,147.102768 169.731659,139.639236 171.980499,132.299072 
M188.963348,135.464462 
	C187.635864,136.664688 185.830582,137.645035 185.142746,139.139633 
	C184.654694,140.200150 185.675217,141.954910 186.022385,143.399811 
	C186.713226,143.378021 187.404068,143.356216 188.094925,143.334427 
	C188.481857,140.949081 188.868805,138.563736 188.963348,135.464462 
z"/>
<path fill="#F8BF03" opacity="1.000000" stroke="none" 
	d="
M226.208282,306.511444 
	C228.548874,303.146881 230.727081,300.156219 233.365402,296.533844 
	C235.128891,297.085022 237.896301,297.950012 241.121872,298.958191 
	C239.000473,302.962189 237.139252,306.475128 234.721130,311.039185 
	C237.718765,311.701202 240.724655,312.186401 243.615265,313.055176 
	C246.351624,313.877563 249.198776,314.753296 251.533966,316.303436 
	C252.635742,317.034821 252.653488,319.399231 253.575439,322.341980 
	C249.011444,320.699677 246.055420,319.719299 243.162125,318.579712 
	C233.192184,314.652832 223.586166,314.191223 214.355774,320.796051 
	C212.428543,322.175110 209.771774,322.534607 206.860291,323.575134 
	C207.876816,315.480316 215.003464,315.908600 220.696976,312.759064 
	C211.518188,311.432220 206.090973,315.000793 203.489990,323.315491 
	C202.134735,321.598541 199.994553,319.476288 200.255035,319.122742 
	C202.117310,316.595093 204.084488,313.305603 206.749191,312.393585 
	C211.426025,310.792786 216.612289,310.597076 221.611725,310.059998 
	C223.847809,309.819733 226.087784,310.091431 226.208282,306.511444 
z"/>
<path fill="#282828" opacity="1.000000" stroke="none" 
	d="
M312.789917,284.883606 
	C307.441284,286.193787 302.539124,287.777161 297.512604,288.530396 
	C294.987366,288.908813 292.235931,287.777618 289.586823,287.329102 
	C289.663971,286.879578 289.741119,286.430054 289.818298,285.980530 
	C298.327972,283.128876 306.837646,280.277252 315.676941,277.315125 
	C315.972839,278.626770 316.420074,280.609100 316.978516,283.084320 
	C315.746887,283.645844 314.465942,284.229828 312.789917,284.883606 
z"/>
<path fill="#F9F9F9" opacity="1.000000" stroke="none" 
	d="
M160.203964,130.585480 
	C162.045578,129.513077 163.762405,128.103531 165.731476,127.400146 
	C166.848877,127.000992 169.507324,127.665085 169.536057,128.011078 
	C169.690964,129.876495 169.556412,133.323792 168.947388,133.449799 
	C163.796860,134.515610 165.279297,138.241745 165.123062,141.445496 
	C159.545517,142.789825 157.786530,141.168808 158.813400,135.316284 
	C159.064285,133.886383 159.698166,132.523697 160.188507,130.889282 
	C160.221085,130.648468 160.184799,130.544006 160.203964,130.585480 
z"/>
<path fill="#282828" opacity="1.000000" stroke="none" 
	d="
M244.259247,284.644501 
	C249.413925,286.426086 247.202759,288.922882 245.013443,292.136780 
	C242.415497,287.140900 232.428177,289.963440 234.359146,280.238800 
	C237.732071,281.728821 240.832916,283.098663 244.259247,284.644501 
z"/>
<path fill="#282828" opacity="1.000000" stroke="none" 
	d="
M213.575134,281.039368 
	C210.338974,281.036438 207.534103,281.036438 204.057999,281.036438 
	C204.838913,278.120056 205.451233,275.833282 206.146042,273.238464 
	C211.058929,275.490997 215.480591,277.518341 219.902267,279.545685 
	C219.805939,280.044556 219.709625,280.543457 219.613297,281.042328 
	C217.744354,281.042328 215.875397,281.042328 213.575134,281.039368 
z"/>
<path fill="#282828" opacity="1.000000" stroke="none" 
	d="
M261.012756,241.986664 
	C261.454102,242.105652 261.886322,242.234009 262.318542,242.362366 
	C261.957977,242.385605 261.597443,242.408829 261.113037,242.223618 
	C260.989197,242.015182 261.003632,241.996048 261.012756,241.986664 
z"/>
<path fill="#746C61" opacity="1.000000" stroke="none" 
	d="
M209.393524,106.366333 
	C209.141037,106.839584 208.727020,107.143883 208.313019,107.448189 
	C208.341171,107.026405 208.369324,106.604630 208.636200,106.039276 
	C208.874924,105.895714 209.232010,106.197395 209.393524,106.366333 
z"/>
<path fill="#121212" opacity="1.000000" stroke="none" 
	d="
M189.109543,135.821426 
	C188.868805,138.563736 188.481857,140.949081 188.094925,143.334427 
	C187.404068,143.356216 186.713226,143.378021 186.022385,143.399811 
	C185.675217,141.954910 184.654694,140.200150 185.142746,139.139633 
	C185.830582,137.645035 187.635864,136.664688 189.109543,135.821426 
z"/>
</svg>